<svg xmlns="http://www.w3.org/2000/svg" viewBox="0 0 64 64" width="64" height="64">
  <defs>
    <linearGradient id="gradient" x1="0%" y1="0%" x2="100%" y2="100%">
      <stop offset="0%" style="stop-color:#4F46E5;stop-opacity:1" />
      <stop offset="100%" style="stop-color:#06B6D4;stop-opacity:1" />
    </linearGradient>
    <filter id="shadow">
      <feDropShadow dx="0" dy="2" stdDeviation="3" flood-opacity="0.1"/>
    </filter>
  </defs>
  
  <!-- 背景圆形 -->
  <circle cx="32" cy="32" r="28" fill="url(#gradient)" filter="url(#shadow)"/>
  
  <!-- 网络节点 -->
  <circle cx="16" cy="20" r="3" fill="#ffffff" opacity="0.9"/>
  <circle cx="32" cy="16" r="3" fill="#ffffff" opacity="0.9"/>
  <circle cx="48" cy="20" r="3" fill="#ffffff" opacity="0.9"/>
  <circle cx="20" cy="40" r="3" fill="#ffffff" opacity="0.9"/>
  <circle cx="44" cy="40" r="3" fill="#ffffff" opacity="0.9"/>
  
  <!-- 连接线 -->
  <line x1="16" y1="20" x2="32" y2="16" stroke="#ffffff" stroke-width="2" opacity="0.7"/>
  <line x1="32" y1="16" x2="48" y2="20" stroke="#ffffff" stroke-width="2" opacity="0.7"/>
  <line x1="16" y1="20" x2="20" y2="40" stroke="#ffffff" stroke-width="2" opacity="0.7"/>
  <line x1="48" y1="20" x2="44" y2="40" stroke="#ffffff" stroke-width="2" opacity="0.7"/>
  <line x1="20" y1="40" x2="44" y2="40" stroke="#ffffff" stroke-width="2" opacity="0.7"/>
  
  <!-- 中心拦截图标 -->
  <rect x="28" y="26" width="8" height="8" rx="2" fill="#ffffff" opacity="0.95"/>
  <rect x="30" y="28" width="4" height="4" rx="1" fill="#4F46E5"/>
  
  <!-- 请求箭头 -->
  <path d="M 22 32 L 26 32 M 24 30 L 26 32 L 24 34" stroke="#10B981" stroke-width="2" fill="none" stroke-linecap="round"/>
  <path d="M 38 32 L 42 32 M 40 30 L 42 32 L 40 34" stroke="#F59E0B" stroke-width="2" fill="none" stroke-linecap="round"/>
  
  <!-- Mock标识 -->
  <circle cx="32" cy="48" r="2" fill="#ffffff" opacity="0.9"/>
  <path d="M 30 48 L 32 46 L 34 48 L 32 50 Z" fill="#10B981" opacity="0.8"/>
</svg>
